# xmcd
#
# Track frame offsets:
#	150
#	12949
#	28911
#	38760
#	51955
#	74653
#	89554
#	102855
#	119198
#	129946
#	149604
#	160717
#	171837
#	184372
#
# Disc length: 2649 seconds
#
# Revision: 1
# Processed by: cddbd v1.5.2PL0 Copyright (c) Steve Scherf et al.
# Submitted via: audiograbber 1.83.01
#
DISCID=d00a570e
DTITLE=Kilkenny Band - EISENBARNEY
DYEAR=2018
DGENRE=
TTITLE0=The Mad Lady And Me
TTITLE1=City Of Chicago
TTITLE2=Hills Of Connemara
TTITLE3=My Grannie´s Dustbin Lid
TTITLE4=Black Is The Colour
TTITLE5=Barrett´s Privateers
TTITLE6=Lark In The Morning
TTITLE7=Grace
TTITLE8=Smith Oo Bristol
TTITLE9=Springhill Disaster
TTITLE10=The Crais Was Ninety In The Isle Of Man
TTITLE11=Donkey Reel
TTITLE12=Pastures Of Plenty
TTITLE13=The Parting Glass
EXTD=
EXTT0=
EXTT1=
EXTT2=
EXTT3=
EXTT4=
EXTT5=
EXTT6=
EXTT7=
EXTT8=
EXTT9=
EXTT10=
EXTT11=
EXTT12=
EXTT13=
PLAYORDER=
